<?xml version="1.0" encoding="utf-8"?>
<!-- Generator: Adobe Illustrator 15.1.0, SVG Export Plug-In . SVG Version: 6.00 Build 0)  -->
<!DOCTYPE svg PUBLIC "-//W3C//DTD SVG 1.1//EN" "http://www.w3.org/Graphics/SVG/1.1/DTD/svg11.dtd">
<svg version="1.1" xmlns="http://www.w3.org/2000/svg" xmlns:xlink="http://www.w3.org/1999/xlink" x="0px" y="0px" width="500px"
	 height="500px" viewBox="0 0 500 500" enable-background="new 0 0 500 500" xml:space="preserve">
<g id="Layer_1">
</g>
<g id="Layer_2">
	<g>
		<path fill="#2ACA70" d="M443.163,332.379c0,61.184-49.602,110.784-110.784,110.784H167.621
			c-61.185,0-110.784-49.601-110.784-110.784V167.621c0-61.185,49.6-110.784,110.784-110.784h164.758
			c61.183,0,110.784,49.6,110.784,110.784V332.379z"/>
		<g>
			<rect x="106.155" y="328.866" fill="#FFFFFF" width="55.556" height="55.556"/>
			<rect x="338.289" y="328.866" fill="#FFFFFF" width="55.556" height="55.556"/>
			<path fill="#FFFFFF" d="M277.756,328.866h-55.512h-5h-50.555v55.556h50.555h5h55.512h4.999h50.557v-55.556h-50.557H277.756z
				 M222.244,379.443v-45.599h55.512v45.599H222.244z"/>
			<path fill="#FFFFFF" d="M134.609,240.239h79.416v60.057h28.569V183.681c0-18.813-6.646-34.867-19.94-48.162
				c-13.372-13.294-29.467-19.941-48.278-19.941c-18.815,0-34.909,6.647-48.279,19.941c-13.294,13.295-19.941,29.349-19.941,48.162
				v116.615h28.454V240.239z M134.609,183.681c0-10.962,3.886-20.291,11.662-27.987c7.772-7.773,17.142-11.662,28.104-11.662
				c10.961,0,20.328,3.889,28.103,11.662c7.698,7.696,11.547,17.025,11.547,27.987v30.32h-79.416V183.681z"/>
			<path fill="#FFFFFF" d="M291.572,271.726l92.942-105.304c5.518-6.219,8.279-13.1,8.279-20.642c0-3.653-0.738-7.151-2.216-10.494
				c-1.479-3.499-3.693-6.531-6.646-9.097c-5.988-5.286-13.916-7.931-23.788-7.931h-89.096v28.454h92.943l-92.824,105.304
				c-4.2,4.744-7.075,9.758-8.63,15.044c-1.632,5.675-1.517,11.041,0.349,16.095c2.254,5.984,6.531,10.456,12.827,13.41
				c5.367,2.487,12.013,3.73,19.944,3.73h98.188v-28.57H291.572z"/>
		</g>
		<polygon fill="#2ACA70" points="133.933,342.957 137.522,354.006 149.14,354.006 139.741,360.831 143.331,371.878 
			133.933,365.052 124.535,371.878 128.124,360.831 118.727,354.006 130.344,354.006 		"/>
		<path fill="#FFFFFF" d="M261.819,362.864l-6.884-1.873l-2.343,2.192c-3.749-2.065-6.639-5.491-8.02-9.609l2.536-1.925
			l-0.688-7.102l-7.967-0.515c-0.227,1.436-0.295,2.813-0.267,4.097h-0.01c0,0.277,0.031,0.547,0.041,0.821
			c0.005,0.069,0.007,0.144,0.011,0.214c0.547,12.021,10.468,21.637,22.619,21.637v-0.008c0.048,0,0.09,0.008,0.137,0.008
			L261.819,362.864z"/>
		<polygon fill="#2ACA70" points="318.215,345.897 292.852,345.897 292.852,359.038 292.852,361.784 292.852,368.938 
			300.943,361.784 318.215,361.784 		"/>
		<path fill="#2ACA70" d="M381.452,360.145v-5.454h-3.696c-0.304-1.295-0.82-2.503-1.505-3.601l2.622-2.622l-3.853-3.854
			l-2.621,2.621c-1.1-0.686-2.31-1.202-3.607-1.504v-3.7h-5.451v3.696c-1.295,0.302-2.504,0.82-3.604,1.506l-2.622-2.625
			l-3.854,3.856l2.625,2.623c-0.685,1.1-1.201,2.308-1.505,3.603h-3.7v5.454h3.694c0.304,1.297,0.821,2.505,1.508,3.606
			l-2.621,2.619l3.854,3.854l2.621-2.621c1.099,0.686,2.307,1.204,3.604,1.506v3.694h5.451v-3.698
			c1.298-0.302,2.51-0.818,3.607-1.504l2.621,2.619l3.853-3.854l-2.618-2.618c0.685-1.1,1.205-2.308,1.507-3.604H381.452z
			 M372.145,357.43c0,3.345-2.72,6.065-6.088,6.065c-3.345,0-6.064-2.721-6.064-6.065c0-3.365,2.72-6.088,6.064-6.088
			C369.425,351.342,372.145,354.064,372.145,357.43z"/>
		<g>
			<path fill="#2ACA70" d="M194.467,343.021c-7.938,0-14.396,6.458-14.396,14.397c0,7.938,6.459,14.396,14.396,14.396
				c7.938,0,14.396-6.458,14.396-14.396C208.863,349.479,202.405,343.021,194.467,343.021z M194.467,367.354
				c-5.479,0-9.937-4.458-9.937-9.937c0-5.479,4.457-9.938,9.937-9.938s9.937,4.458,9.937,9.938
				C204.403,362.896,199.946,367.354,194.467,367.354z"/>
			<polygon fill="#2ACA70" points="193.562,356.951 187.922,356.951 187.922,359.18 195.791,359.18 195.791,351.31 193.562,351.31 
							"/>
		</g>
	</g>
</g>
</svg>
