<?xml version="1.0" encoding="utf-8"?>
<!-- Generator: Adobe Illustrator 15.1.0, SVG Export Plug-In . SVG Version: 6.00 Build 0)  -->
<!DOCTYPE svg PUBLIC "-//W3C//DTD SVG 1.1//EN" "http://www.w3.org/Graphics/SVG/1.1/DTD/svg11.dtd">
<svg version="1.1" xmlns="http://www.w3.org/2000/svg" xmlns:xlink="http://www.w3.org/1999/xlink" x="0px" y="0px"
	 width="569.35px" height="103.885px" viewBox="0 0 569.35 103.885" enable-background="new 0 0 569.35 103.885"
	 xml:space="preserve">
<g id="Layer_1">
</g>
<g id="Layer_2">
	<g>
		<g>
			<path fill="#2ACA70" d="M87.181,66.966c0,11.157-9.046,20.203-20.203,20.203H36.931c-11.159,0-20.205-9.046-20.205-20.203V36.919
				c0-11.159,9.046-20.204,20.205-20.204h30.047c11.157,0,20.203,9.045,20.203,20.204V66.966z"/>
			<path fill="#FFFFFF" d="M54.108,72.526l-1.255-0.342l-0.428,0.4c-0.684-0.378-1.21-1.002-1.463-1.753l0.463-0.351l-0.125-1.296
				l-1.453-0.094c-0.041,0.263-0.054,0.514-0.049,0.747h-0.001c0,0.051,0.005,0.1,0.007,0.15c0.001,0.012,0.001,0.026,0.002,0.039
				c0.101,2.192,1.91,3.945,4.126,3.945v-0.001c0.008,0,0.016,0.001,0.023,0.001L54.108,72.526z"/>
			<g>
				<g>
					<path fill="#FFFFFF" d="M38.162,27.427c-3.432,0-6.367,1.213-8.806,3.637c-2.425,2.425-3.637,5.353-3.637,8.784v21.267h5.188
						V50.163h14.483v10.952h5.211V39.848c0-3.432-1.212-6.359-3.637-8.784C44.527,28.64,41.592,27.427,38.162,27.427z
						 M45.392,45.377H30.908v-5.529c0-1.999,0.709-3.7,2.127-5.104c1.419-1.417,3.127-2.127,5.127-2.127
						c1.998,0,3.706,0.71,5.124,2.127c1.405,1.404,2.105,3.105,2.105,5.104V45.377z"/>
					<path fill="#FFFFFF" d="M59.535,55.905L76.484,36.7c1.007-1.134,1.511-2.389,1.511-3.764c0-0.667-0.136-1.305-0.404-1.914
						c-0.27-0.639-0.674-1.19-1.212-1.658c-1.093-0.965-2.538-1.447-4.338-1.447H55.792v5.189h16.949L55.813,52.31
						c-0.766,0.865-1.29,1.78-1.574,2.744c-0.297,1.034-0.276,2.014,0.064,2.936c0.41,1.091,1.191,1.906,2.339,2.445
						c0.979,0.453,2.19,0.68,3.637,0.68h17.907v-5.21H59.535z"/>
				</g>
				<path fill="#FFFFFF" d="M25.72,66.326v10.132h10.132V66.326H25.72z M32.5,74.169l-1.715-1.244l-1.714,1.244l0.655-2.015
					l-1.715-1.244h2.119l0.654-2.016l0.655,2.016h2.119l-1.714,1.244L32.5,74.169z"/>
				<g>
					<path fill="#FFFFFF" d="M73.118,70.424c-0.61,0-1.104,0.497-1.104,1.11c0,0.61,0.494,1.106,1.104,1.106
						c0.614,0,1.111-0.496,1.111-1.106C74.229,70.921,73.732,70.424,73.118,70.424z"/>
					<path fill="#FFFFFF" d="M68.055,66.326v10.132h10.132V66.326H68.055z M75.926,72.03h-0.672
						c-0.055,0.236-0.15,0.457-0.275,0.657l0.478,0.478l-0.702,0.703l-0.479-0.478c-0.2,0.125-0.421,0.219-0.657,0.274v0.674h-0.995
						v-0.674c-0.236-0.055-0.456-0.149-0.656-0.274l-0.479,0.478l-0.703-0.702l0.479-0.478c-0.126-0.201-0.22-0.422-0.274-0.658
						h-0.675v-0.994h0.675c0.056-0.236,0.149-0.457,0.275-0.657L70.785,69.9l0.702-0.703l0.479,0.479
						c0.2-0.125,0.42-0.22,0.656-0.274v-0.674h0.995v0.675c0.236,0.055,0.456,0.148,0.657,0.273l0.479-0.478l0.702,0.702
						l-0.478,0.479c0.123,0.2,0.218,0.421,0.273,0.657h0.674V72.03z"/>
				</g>
				<g>
					<path fill="#FFFFFF" d="M41.825,69.72c-0.999,0-1.812,0.813-1.812,1.813s0.813,1.813,1.812,1.813s1.812-0.813,1.812-1.813
						S42.824,69.72,41.825,69.72z M42.066,71.854h-1.436v-0.406h1.029v-1.028h0.406V71.854z"/>
					<path fill="#FFFFFF" d="M57.927,66.326h-0.911H46.891h-0.911h-9.22v10.132h9.22h0.911h10.125h0.911h9.22V66.326H57.927z
						 M41.825,74.159c-1.447,0-2.626-1.179-2.626-2.626c0-1.448,1.179-2.626,2.626-2.626s2.626,1.178,2.626,2.626
						C44.451,72.98,43.272,74.159,41.825,74.159z M57.016,75.549H46.891v-8.315h10.125V75.549z M64.394,72.329h-3.15l-1.475,1.305
						v-1.305v-0.501v-2.396h4.625V72.329z"/>
				</g>
			</g>
		</g>
		<g>
			<path fill="#32475B" d="M125.694,58.195h-16.04v12.131h-5.748V46.772c0-3.802,1.344-7.044,4.028-9.729
				c2.7-2.686,5.949-4.027,9.752-4.027c3.799,0,7.049,1.342,9.751,4.027c2.686,2.685,4.027,5.927,4.027,9.729v23.554h-5.771V58.195z
				 M109.654,52.896h16.04v-6.124c0-2.216-0.778-4.099-2.332-5.654c-1.571-1.57-3.463-2.354-5.676-2.354
				c-2.215,0-4.107,0.784-5.678,2.354c-1.571,1.556-2.354,3.438-2.354,5.654V52.896z"/>
			<path fill="#32475B" d="M137.212,39.305v-5.748h17.996c1.994,0,3.596,0.534,4.805,1.603c0.597,0.519,1.045,1.129,1.344,1.836
				c0.297,0.676,0.447,1.383,0.447,2.121c0,1.522-0.558,2.912-1.673,4.169l-18.772,21.271h20.658v5.77h-19.834
				c-1.603,0-2.944-0.251-4.027-0.754c-1.271-0.596-2.137-1.498-2.592-2.708c-0.377-1.021-0.4-2.104-0.069-3.25
				c0.313-1.069,0.894-2.081,1.741-3.04l18.751-21.269H137.212z"/>
			<path fill="#32475B" d="M164.136,39.305v-5.748h25.438v5.748h-9.845v31.021h-5.748V39.305H164.136z"/>
			<path fill="#32475B" d="M206.205,44.982h5.771v25.344h-5.771v-1.861c-2.091,1.587-4.398,2.38-6.927,2.38
				c-3.22,0-5.982-1.17-8.291-3.509c-2.464-2.513-3.698-5.74-3.698-9.682c0-3.925,1.225-7.145,3.675-9.657
				c2.309-2.355,5.072-3.533,8.291-3.533c2.528,0,4.845,0.793,6.95,2.379V44.982z M206.205,52.425
				c-1.399-1.665-3.174-2.505-5.325-2.521c-2.041-0.017-3.84,0.683-5.393,2.097c-1.635,1.507-2.451,3.391-2.451,5.652
				c0,2.246,0.816,4.122,2.451,5.629c1.538,1.43,3.329,2.137,5.37,2.12c2.15,0,3.934-0.84,5.348-2.521V52.425z"/>
			<path fill="#32475B" d="M222.434,46.842c2.104-1.586,4.429-2.379,6.972-2.379c3.22,0,5.975,1.178,8.268,3.533
				c2.465,2.513,3.699,5.732,3.699,9.657c0,3.941-1.234,7.169-3.699,9.682c-2.308,2.339-5.081,3.509-8.315,3.509
				c-2.513,0-4.82-0.793-6.924-2.38v1.861h-5.748V33.557h5.748V46.842z M222.434,62.882c1.428,1.681,3.219,2.521,5.37,2.521
				c2.041,0.017,3.832-0.69,5.371-2.12c1.615-1.507,2.425-3.383,2.425-5.629c0-2.262-0.817-4.146-2.448-5.652
				c-1.542-1.414-3.33-2.113-5.371-2.097c-2.152,0.016-3.934,0.855-5.347,2.521V62.882z"/>
			<path fill="#32475B" d="M245.376,43.945c0-2.874,1.012-5.323,3.038-7.35c2.041-2.025,4.49-3.038,7.348-3.038h4.335
				c2.937,0,5.442,1.037,7.514,3.109c2.072,2.072,3.108,4.578,3.108,7.515c0,3.172-1.382,5.629-4.143,7.372
				c3.312,2.184,4.967,4.891,4.967,8.127c0,2.937-1.034,5.448-3.106,7.537c-2.089,2.071-4.602,3.108-7.539,3.108h-12.648
				c-0.786,0-1.46-0.282-2.026-0.847c-0.565-0.565-0.847-1.241-0.847-2.026V43.945z M260.097,49.527
				c1.335,0,2.482-0.479,3.438-1.438c0.959-1.098,1.438-2.401,1.438-3.908c0-1.508-0.479-2.733-1.438-3.676
				c-0.956-0.958-2.104-1.437-3.438-1.437h-4.335c-1.271,0-2.362,0.456-3.271,1.365c-0.912,0.912-1.366,2.003-1.366,3.275v5.817
				H260.097z M251.124,54.356v10.435h9.773c1.351,0,2.505-0.471,3.463-1.412c0.943-0.958,1.414-2.191,1.414-3.698
				c0-1.493-0.471-2.796-1.414-3.91c-0.958-0.943-2.112-1.414-3.463-1.414H251.124z"/>
			<path fill="#32475B" d="M293.545,44.982h5.771v25.344h-5.771v-1.861c-2.088,1.587-4.397,2.38-6.924,2.38
				c-3.222,0-5.983-1.17-8.293-3.509c-2.465-2.513-3.698-5.74-3.698-9.682c0-3.925,1.225-7.145,3.675-9.657
				c2.308-2.355,5.071-3.533,8.29-3.533c2.529,0,4.846,0.793,6.95,2.379V44.982z M293.545,52.425
				c-1.396-1.665-3.173-2.505-5.324-2.521c-2.041-0.017-3.839,0.683-5.393,2.097c-1.634,1.507-2.451,3.391-2.451,5.652
				c0,2.246,0.817,4.122,2.451,5.629c1.538,1.43,3.328,2.137,5.37,2.12c2.151,0,3.933-0.84,5.347-2.521V52.425z"/>
			<path fill="#32475B" d="M320.114,52.306c-1.366-1.412-3.015-2.119-4.947-2.119c-1.177,0-2.276,0.282-3.296,0.848
				c-0.801,0.44-1.5,1.029-2.098,1.766v17.525h-5.745V44.982h5.745v2.825c2.245-2.244,4.742-3.368,7.491-3.368
				c2.638,0.017,4.946,1.014,6.925,2.992L320.114,52.306z"/>
			<path fill="#32475B" d="M349.841,40.341c-2.198-0.927-4.326-1.39-6.384-1.39c-2.4,0-4.718,0.628-6.947,1.883
				c-4.256,2.404-6.385,6.165-6.385,11.284s2.137,8.888,6.408,11.306c2.229,1.272,4.546,1.908,6.947,1.908
				c2.058,0,4.177-0.471,6.36-1.413l1.672,5.488c-2.639,0.973-5.299,1.461-7.983,1.461c-0.598,0-1.193-0.024-1.791-0.072
				c-3.188-0.266-6.094-1.192-8.716-2.779c-2.67-1.616-4.751-3.752-6.241-6.406c-1.602-2.811-2.403-5.976-2.403-9.492
				c0-3.408,0.81-6.533,2.426-9.375c1.54-2.686,3.645-4.859,6.314-6.524c2.668-1.665,5.583-2.639,8.737-2.921
				c0.582-0.047,1.162-0.071,1.743-0.071c2.686,0,5.324,0.542,7.914,1.625L349.841,40.341z"/>
			<path fill="#32475B" d="M365.858,44.439c3.659,0,6.775,1.289,9.352,3.863c2.574,2.576,3.863,5.692,3.863,9.352
				c0,3.644-1.289,6.76-3.863,9.351c-2.576,2.576-5.692,3.864-9.352,3.864c-3.643,0-6.761-1.288-9.351-3.864
				c-2.576-2.591-3.863-5.707-3.863-9.351c0-3.659,1.287-6.775,3.863-9.352C359.098,45.728,362.216,44.439,365.858,44.439z
				 M360.724,63.802c1.413,1.35,3.125,2.025,5.135,2.025c2.026,0,3.737-0.684,5.135-2.051c1.555-1.506,2.332-3.547,2.332-6.123
				c0-2.592-0.777-4.641-2.332-6.148c-1.397-1.365-3.108-2.049-5.135-2.049c-2.01,0.016-3.722,0.707-5.135,2.073
				c-1.554,1.508-2.332,3.549-2.332,6.124C358.392,60.23,359.17,62.279,360.724,63.802z"/>
			<path fill="#32475B" d="M388.59,47.807c1.789-1.789,3.768-2.865,5.937-3.227c2.072-0.345,4.051-0.024,5.935,0.966
				c1.9,0.99,3.415,2.506,4.545,4.546c1.21,2.183,1.815,4.703,1.815,7.562v12.672h-5.771V57.654c0-2.089-0.699-3.864-2.096-5.324
				c-1.383-1.428-3.039-2.143-4.971-2.143c-1.179,0-2.278,0.282-3.297,0.848c-0.802,0.44-1.501,1.029-2.097,1.766v17.525h-5.748
				V44.982h5.748V47.807z"/>
			<path fill="#32475B" d="M413.628,33.557h5.771v11.425h6.996v5.11h-6.996v8.528l-0.024,0.518c0,2.119,0.173,3.541,0.519,4.263
				c0.55,1.162,1.759,1.743,3.628,1.743h2.874v5.182h-2.874c-4.445,0-7.326-1.146-8.646-3.438c-0.832-1.413-1.239-4.185-1.225-8.314
				l-0.023-0.542v-7.938h-3.511v-5.11h3.511V33.557z"/>
			<path fill="#32475B" d="M445.779,52.306c-1.367-1.412-3.015-2.119-4.947-2.119c-1.177,0-2.276,0.282-3.297,0.848
				c-0.802,0.44-1.5,1.029-2.096,1.766v17.525h-5.747V44.982h5.747v2.825c2.245-2.244,4.741-3.368,7.489-3.368
				c2.638,0.017,4.948,1.014,6.926,2.992L445.779,52.306z"/>
			<path fill="#32475B" d="M463.021,44.439c3.659,0,6.775,1.289,9.352,3.863c2.575,2.576,3.861,5.692,3.861,9.352
				c0,3.644-1.286,6.76-3.861,9.351c-2.576,2.576-5.692,3.864-9.352,3.864c-3.643,0-6.76-1.288-9.352-3.864
				c-2.576-2.591-3.862-5.707-3.862-9.351c0-3.659,1.286-6.775,3.862-9.352C456.262,45.728,459.379,44.439,463.021,44.439z
				 M457.886,63.802c1.415,1.35,3.125,2.025,5.136,2.025c2.025,0,3.736-0.684,5.135-2.051c1.555-1.506,2.332-3.547,2.332-6.123
				c0-2.592-0.777-4.641-2.332-6.148c-1.398-1.365-3.109-2.049-5.135-2.049c-2.011,0.016-3.721,0.707-5.136,2.073
				c-1.554,1.508-2.332,3.549-2.332,6.124C455.554,60.23,456.332,62.279,457.886,63.802z"/>
			<path fill="#32475B" d="M481.184,33.557h5.746v36.769h-5.746V33.557z"/>
			<path fill="#32475B" d="M493.996,33.557h5.747v36.769h-5.747V33.557z"/>
			<path fill="#32475B" d="M524.006,69.501c-1.854,0.911-3.81,1.367-5.867,1.367c-3.643,0-6.759-1.288-9.35-3.864
				c-2.576-2.591-3.864-5.707-3.864-9.351c0-3.659,1.288-6.775,3.864-9.352c2.591-2.574,5.707-3.863,9.35-3.863
				c1.995,0,3.896,0.433,5.702,1.296c1.82,0.88,3.359,2.097,4.616,3.651c0.471,0.597,0.619,1.28,0.446,2.05
				c-0.156,0.737-0.557,1.364-1.2,1.883l-12.767,11.378c1.696,1.005,3.446,1.271,5.252,0.801c1.728-0.439,3.165-1.445,4.311-3.015
				l4.17,3.156C527.412,67.288,525.857,68.575,524.006,69.501z M522.593,51.293c-1.257-1.396-3.016-1.915-5.278-1.554
				c-1.978,0.313-3.588,1.092-4.828,2.332c-1.163,1.162-1.898,2.614-2.215,4.357c-0.345,1.947,0.041,3.565,1.155,4.852
				L522.593,51.293z"/>
			<path fill="#32475B" d="M548.549,52.306c-1.365-1.412-3.014-2.119-4.947-2.119c-1.177,0-2.276,0.282-3.296,0.848
				c-0.801,0.44-1.5,1.029-2.097,1.766v17.525h-5.747V44.982h5.747v2.825c2.245-2.244,4.741-3.368,7.491-3.368
				c2.637,0.017,4.946,1.014,6.924,2.992L548.549,52.306z"/>
		</g>
	</g>
</g>
</svg>
