<?xml version="1.0" encoding="utf-8"?>
<!-- Generator: Adobe Illustrator 15.1.0, SVG Export Plug-In . SVG Version: 6.00 Build 0)  -->
<!DOCTYPE svg PUBLIC "-//W3C//DTD SVG 1.1//EN" "http://www.w3.org/Graphics/SVG/1.1/DTD/svg11.dtd">
<svg version="1.1" xmlns="http://www.w3.org/2000/svg" xmlns:xlink="http://www.w3.org/1999/xlink" x="0px" y="0px"
	 width="272.984px" height="227.271px" viewBox="0 0 272.984 227.271" enable-background="new 0 0 272.984 227.271"
	 xml:space="preserve">
<g id="Layer_1">
</g>
<g id="Layer_2">
	<g>
		<g>
			<path fill="#2ACA70" d="M210.721,125.588c0,23.51-19.061,42.57-42.57,42.57h-63.313c-23.514,0-42.574-19.061-42.574-42.57V62.277
				c0-23.514,19.061-42.572,42.574-42.572h63.313c23.51,0,42.57,19.059,42.57,42.572V125.588z"/>
			<g>
				<path fill="#FFFFFF" d="M141.033,137.303l-2.645-0.719l-0.9,0.842c-1.441-0.795-2.551-2.109-3.084-3.693l0.977-0.738
					l-0.264-2.73l-3.063-0.197c-0.086,0.553-0.113,1.082-0.102,1.574h-0.002c0,0.107,0.01,0.209,0.014,0.316
					c0.002,0.025,0.002,0.057,0.004,0.082c0.213,4.621,4.025,8.314,8.693,8.314v-0.002c0.018,0,0.033,0.002,0.051,0.002
					L141.033,137.303z"/>
				<g>
					<g>
						<path fill="#FFFFFF" d="M107.434,42.275c-7.232,0-13.418,2.557-18.555,7.664c-5.109,5.109-7.664,11.277-7.664,18.508v44.813
							h10.934V90.182h30.518v23.078h10.98V68.447c0-7.23-2.555-13.398-7.664-18.508C120.846,44.832,114.66,42.275,107.434,42.275z
							 M122.666,80.1H92.148V68.447c0-4.211,1.494-7.797,4.48-10.756c2.99-2.984,6.59-4.48,10.805-4.48
							c4.209,0,7.809,1.496,10.797,4.48c2.961,2.959,4.436,6.545,4.436,10.756V80.1z"/>
						<path fill="#FFFFFF" d="M152.469,102.281l35.713-40.467c2.121-2.391,3.184-5.033,3.184-7.932c0-1.404-0.287-2.748-0.852-4.033
							c-0.568-1.346-1.42-2.508-2.555-3.494c-2.303-2.033-5.348-3.049-9.141-3.049H144.58v10.936h35.715l-35.67,40.465
							c-1.611,1.822-2.717,3.75-3.316,5.781c-0.625,2.18-0.582,4.244,0.137,6.186c0.863,2.299,2.51,4.018,4.928,5.152
							c2.063,0.955,4.615,1.434,7.662,1.434h37.732v-10.979H152.469z"/>
					</g>
					<path fill="#FFFFFF" d="M81.215,124.238v21.35h21.35v-21.35H81.215z M95.502,140.766l-3.613-2.621l-3.611,2.621l1.381-4.244
						l-3.613-2.621h4.465l1.379-4.248l1.381,4.248h4.465l-3.611,2.621L95.502,140.766z"/>
					<g>
						<path fill="#FFFFFF" d="M181.088,132.875c-1.285,0-2.326,1.047-2.326,2.34c0,1.285,1.041,2.332,2.326,2.332
							c1.295,0,2.342-1.047,2.342-2.332C183.43,133.922,182.383,132.875,181.088,132.875z"/>
						<path fill="#FFFFFF" d="M170.42,124.238v21.35h21.348v-21.35H170.42z M187.004,136.258h-1.414
							c-0.115,0.498-0.318,0.963-0.582,1.385l1.008,1.006l-1.48,1.482l-1.008-1.006c-0.422,0.264-0.887,0.461-1.385,0.578v1.42
							h-2.098v-1.42c-0.498-0.115-0.961-0.314-1.383-0.578l-1.008,1.006l-1.482-1.48l1.01-1.006
							c-0.266-0.424-0.463-0.889-0.578-1.387h-1.422v-2.094h1.422c0.117-0.498,0.314-0.965,0.58-1.385l-1.012-1.01l1.48-1.48
							l1.01,1.008c0.422-0.264,0.885-0.463,1.383-0.578v-1.42h2.098v1.422c0.498,0.115,0.961,0.313,1.385,0.576l1.008-1.006
							l1.48,1.479l-1.008,1.01c0.26,0.42,0.459,0.887,0.576,1.385h1.42V136.258z"/>
					</g>
					<g>
						<path fill="#FFFFFF" d="M115.15,131.391c-2.104,0-3.816,1.715-3.816,3.82s1.713,3.818,3.816,3.818
							c2.105,0,3.818-1.713,3.818-3.818S117.256,131.391,115.15,131.391z M115.66,135.887h-3.025v-0.855h2.168v-2.166h0.857V135.887
							z"/>
						<path fill="#FFFFFF" d="M149.078,124.238h-1.92h-21.334h-1.92h-19.426v21.35h19.426h1.92h21.334h1.92h19.428v-21.35H149.078z
							 M115.15,140.744c-3.049,0-5.533-2.484-5.533-5.533c0-3.053,2.484-5.533,5.533-5.533c3.051,0,5.533,2.48,5.533,5.533
							C120.684,138.26,118.201,140.744,115.15,140.744z M147.158,143.674h-21.334v-17.521h21.334V143.674z M162.705,136.887h-6.639
							l-3.107,2.75v-2.75v-1.055v-5.047h9.746V136.887z"/>
					</g>
				</g>
			</g>
		</g>
		<g>
			<path fill="#32475B" d="M31.045,200.971h-8.351v6.316h-2.99v-12.264c0-1.977,0.698-3.664,2.096-5.063
				c1.406-1.398,3.099-2.098,5.076-2.098c1.979,0,3.671,0.699,5.077,2.098c1.397,1.398,2.096,3.086,2.096,5.063v12.264h-3.004
				V200.971z M22.694,198.213h8.351v-3.189c0-1.152-0.404-2.133-1.214-2.941c-0.817-0.818-1.801-1.227-2.955-1.227
				c-1.152,0-2.138,0.408-2.954,1.227c-0.818,0.809-1.228,1.789-1.228,2.941V198.213z"/>
			<path fill="#32475B" d="M37.041,191.137v-2.992h9.368c1.037,0,1.871,0.279,2.501,0.836c0.311,0.268,0.543,0.588,0.698,0.955
				c0.155,0.352,0.233,0.721,0.233,1.104c0,0.793-0.291,1.518-0.87,2.172l-9.772,11.07h10.754v3.006H39.628
				c-0.834,0-1.532-0.131-2.096-0.393c-0.663-0.313-1.112-0.781-1.35-1.41c-0.196-0.533-0.209-1.096-0.036-1.693
				c0.162-0.555,0.465-1.082,0.907-1.582l9.76-11.072H37.041z"/>
			<path fill="#32475B" d="M51.055,191.137v-2.992h13.243v2.992h-5.125v16.15h-2.992v-16.15H51.055z"/>
			<path fill="#32475B" d="M72.954,194.092h3.004v13.195h-3.004v-0.969c-1.088,0.824-2.289,1.238-3.605,1.238
				c-1.676,0-3.113-0.611-4.314-1.828c-1.283-1.309-1.926-2.986-1.926-5.039c0-2.043,0.638-3.721,1.912-5.027
				c1.202-1.227,2.64-1.838,4.316-1.838c1.315,0,2.522,0.412,3.617,1.236V194.092z M72.954,197.967
				c-0.728-0.867-1.652-1.303-2.771-1.313c-1.063-0.008-1.998,0.355-2.808,1.092c-0.85,0.785-1.275,1.766-1.275,2.943
				c0,1.168,0.426,2.145,1.275,2.93c0.801,0.744,1.733,1.111,2.796,1.104c1.119,0,2.049-0.436,2.783-1.311V197.967z"/>
			<path fill="#32475B" d="M81.403,195.061c1.095-0.824,2.305-1.236,3.629-1.236c1.675,0,3.108,0.611,4.303,1.838
				c1.283,1.307,1.925,2.984,1.925,5.027c0,2.053-0.642,3.73-1.925,5.039c-1.203,1.217-2.644,1.828-4.327,1.828
				c-1.309,0-2.51-0.414-3.604-1.238v0.969h-2.992v-19.143h2.992V195.061z M81.403,203.412c0.743,0.875,1.674,1.311,2.795,1.311
				c1.062,0.008,1.995-0.359,2.796-1.104c0.841-0.785,1.262-1.762,1.262-2.93c0-1.178-0.425-2.158-1.274-2.943
				c-0.802-0.736-1.733-1.1-2.795-1.092c-1.121,0.01-2.049,0.445-2.783,1.313V203.412z"/>
			<path fill="#32475B" d="M93.346,193.553c0-1.496,0.525-2.771,1.58-3.826c1.063-1.055,2.338-1.582,3.826-1.582h2.256
				c1.528,0,2.832,0.541,3.911,1.621c1.079,1.078,1.619,2.381,1.619,3.91c0,1.652-0.72,2.93-2.159,3.838
				c1.726,1.137,2.587,2.547,2.587,4.23c0,1.527-0.539,2.836-1.617,3.924c-1.088,1.078-2.395,1.619-3.923,1.619h-6.585
				c-0.409,0-0.761-0.148-1.055-0.443c-0.295-0.293-0.44-0.645-0.44-1.053V193.553z M101.008,196.459
				c0.694,0,1.291-0.25,1.789-0.748c0.5-0.572,0.749-1.252,0.749-2.035c0-0.785-0.249-1.422-0.749-1.914
				c-0.498-0.498-1.095-0.748-1.789-0.748h-2.256c-0.661,0-1.23,0.238-1.704,0.713c-0.476,0.473-0.71,1.041-0.71,1.703v3.029
				H101.008z M96.338,198.973v5.432h5.088c0.701,0,1.304-0.246,1.801-0.736c0.491-0.498,0.736-1.141,0.736-1.924
				c0-0.777-0.245-1.455-0.736-2.037c-0.497-0.49-1.1-0.734-1.801-0.734H96.338z"/>
			<path fill="#32475B" d="M118.419,194.092h3.005v13.195h-3.005v-0.969c-1.088,0.824-2.289,1.238-3.604,1.238
				c-1.677,0-3.114-0.611-4.316-1.828c-1.283-1.309-1.926-2.986-1.926-5.039c0-2.043,0.639-3.721,1.915-5.027
				c1.201-1.227,2.639-1.838,4.314-1.838c1.316,0,2.522,0.412,3.617,1.236V194.092z M118.419,197.967
				c-0.728-0.867-1.651-1.303-2.771-1.313c-1.063-0.008-2,0.355-2.808,1.092c-0.852,0.785-1.276,1.766-1.276,2.943
				c0,1.168,0.425,2.145,1.276,2.93c0.801,0.744,1.731,1.111,2.795,1.104c1.119,0,2.047-0.436,2.783-1.311V197.967z"/>
			<path fill="#32475B" d="M132.25,197.904c-0.712-0.734-1.569-1.104-2.576-1.104c-0.612,0-1.185,0.148-1.716,0.443
				c-0.418,0.227-0.78,0.533-1.092,0.918v9.125h-2.99v-13.195h2.99v1.473c1.168-1.17,2.469-1.754,3.899-1.754
				c1.373,0.008,2.576,0.527,3.604,1.557L132.25,197.904z"/>
			<path fill="#32475B" d="M147.725,191.676c-1.146-0.48-2.254-0.723-3.323-0.723c-1.251,0-2.457,0.328-3.618,0.982
				c-2.214,1.248-3.323,3.207-3.323,5.871c0,2.666,1.112,4.627,3.337,5.887c1.161,0.662,2.365,0.994,3.615,0.994
				c1.072,0,2.176-0.246,3.313-0.736l0.87,2.855c-1.373,0.508-2.761,0.76-4.156,0.76c-0.312,0-0.621-0.01-0.934-0.035
				c-1.658-0.141-3.171-0.621-4.535-1.447c-1.39-0.842-2.474-1.955-3.25-3.334c-0.834-1.465-1.25-3.111-1.25-4.943
				c0-1.773,0.42-3.4,1.262-4.879c0.801-1.398,1.897-2.529,3.286-3.396c1.39-0.867,2.907-1.373,4.549-1.52
				c0.303-0.025,0.605-0.037,0.908-0.037c1.398,0,2.77,0.281,4.12,0.846L147.725,191.676z"/>
			<path fill="#32475B" d="M156.063,193.811c1.904,0,3.526,0.67,4.866,2.012c1.341,1.34,2.011,2.961,2.011,4.867
				c0,1.896-0.67,3.518-2.011,4.867c-1.34,1.34-2.962,2.01-4.866,2.01c-1.897,0-3.52-0.67-4.869-2.01
				c-1.342-1.35-2.012-2.971-2.012-4.867c0-1.906,0.67-3.527,2.012-4.867C152.543,194.48,154.165,193.811,156.063,193.811z
				 M153.389,203.889c0.736,0.703,1.626,1.055,2.674,1.055c1.055,0,1.944-0.355,2.672-1.066c0.81-0.785,1.213-1.846,1.213-3.188
				c0-1.35-0.403-2.416-1.213-3.201c-0.728-0.711-1.617-1.064-2.672-1.064c-1.048,0.008-1.938,0.367-2.674,1.078
				c-0.81,0.785-1.215,1.846-1.215,3.188S152.579,203.096,153.389,203.889z"/>
			<path fill="#32475B" d="M167.896,195.564c0.931-0.934,1.96-1.492,3.088-1.68c1.079-0.18,2.109-0.014,3.089,0.502
				c0.991,0.516,1.779,1.305,2.367,2.365c0.631,1.137,0.944,2.449,0.944,3.938v6.598h-3.003v-6.598c0-1.088-0.364-2.012-1.092-2.771
				c-0.721-0.744-1.582-1.117-2.588-1.117c-0.613,0-1.186,0.148-1.717,0.443c-0.416,0.227-0.779,0.533-1.089,0.918v9.125h-2.994
				v-13.195h2.994V195.564z"/>
			<path fill="#32475B" d="M180.928,188.145h3.004v5.947h3.642v2.66h-3.642v4.439l-0.013,0.27c0,1.104,0.089,1.844,0.271,2.221
				c0.285,0.605,0.915,0.906,1.887,0.906h1.497v2.699h-1.497c-2.313,0-3.813-0.598-4.5-1.791c-0.432-0.736-0.646-2.178-0.637-4.33
				l-0.012-0.279v-4.135h-1.826v-2.66h1.826V188.145z"/>
			<path fill="#32475B" d="M197.663,197.904c-0.712-0.734-1.568-1.104-2.574-1.104c-0.614,0-1.186,0.148-1.716,0.443
				c-0.418,0.227-0.782,0.533-1.092,0.918v9.125h-2.992v-13.195h2.992v1.473c1.168-1.17,2.469-1.754,3.899-1.754
				c1.373,0.008,2.574,0.527,3.604,1.557L197.663,197.904z"/>
			<path fill="#32475B" d="M206.64,193.811c1.904,0,3.526,0.67,4.867,2.012c1.34,1.34,2.011,2.961,2.011,4.867
				c0,1.896-0.671,3.518-2.011,4.867c-1.341,1.34-2.963,2.01-4.867,2.01c-1.897,0-3.52-0.67-4.868-2.01
				c-1.342-1.35-2.013-2.971-2.013-4.867c0-1.906,0.671-3.527,2.013-4.867C203.12,194.48,204.742,193.811,206.64,193.811z
				 M203.966,203.889c0.736,0.703,1.626,1.055,2.674,1.055c1.055,0,1.944-0.355,2.672-1.066c0.81-0.785,1.214-1.846,1.214-3.188
				c0-1.35-0.404-2.416-1.214-3.201c-0.728-0.711-1.617-1.064-2.672-1.064c-1.048,0.008-1.938,0.367-2.674,1.078
				c-0.809,0.785-1.215,1.846-1.215,3.188S203.157,203.096,203.966,203.889z"/>
			<path fill="#32475B" d="M216.094,188.145h2.99v19.143h-2.99V188.145z"/>
			<path fill="#32475B" d="M222.762,188.145h2.992v19.143h-2.992V188.145z"/>
			<path fill="#32475B" d="M238.384,206.857c-0.964,0.473-1.982,0.709-3.053,0.709c-1.897,0-3.518-0.67-4.869-2.01
				c-1.34-1.35-2.01-2.971-2.01-4.867c0-1.906,0.67-3.527,2.01-4.867c1.352-1.342,2.972-2.012,4.869-2.012
				c1.037,0,2.025,0.225,2.966,0.676c0.948,0.457,1.751,1.09,2.404,1.898c0.245,0.311,0.323,0.666,0.232,1.068
				c-0.081,0.383-0.29,0.709-0.625,0.979l-6.646,5.924c0.883,0.523,1.793,0.662,2.734,0.416c0.898-0.229,1.647-0.752,2.244-1.568
				l2.171,1.643C240.157,205.703,239.349,206.375,238.384,206.857z M237.647,197.377c-0.652-0.725-1.568-0.996-2.746-0.809
				c-1.029,0.164-1.868,0.568-2.514,1.215c-0.604,0.605-0.989,1.361-1.152,2.268c-0.18,1.014,0.021,1.857,0.601,2.525
				L237.647,197.377z"/>
			<path fill="#32475B" d="M251.16,197.904c-0.712-0.734-1.57-1.104-2.576-1.104c-0.612,0-1.184,0.148-1.715,0.443
				c-0.417,0.227-0.781,0.533-1.091,0.918v9.125h-2.992v-13.195h2.992v1.473c1.168-1.17,2.468-1.754,3.898-1.754
				c1.374,0.008,2.575,0.527,3.604,1.557L251.16,197.904z"/>
		</g>
	</g>
</g>
</svg>
